<?xml version="1.0" encoding="UTF-8"?>
<svg xmlns="http://www.w3.org/2000/svg" width="720" height="210" viewBox="0 0 720 210" role="img" aria-label="GitHub stats for charlespura">
  <defs>
    <linearGradient id="bg" x1="0" y1="0" x2="1" y2="1">
      <stop offset="0%" stop-color="#0d1117"/>
      <stop offset="100%" stop-color="#0a1224"/>
    </linearGradient>
    <linearGradient id="accent" x1="0" y1="0" x2="1" y2="0">
      <stop offset="0%" stop-color="#2f81f7"/>
      <stop offset="55%" stop-color="#ff7b72"/>
      <stop offset="100%" stop-color="#ffa657"/>
    </linearGradient>
    <linearGradient id="fire" x1="0" y1="0" x2="0" y2="1">
      <stop offset="0%" stop-color="#ffa657"/>
      <stop offset="100%" stop-color="#ff7b72"/>
    </linearGradient>
    <filter id="glow" x="-30%" y="-30%" width="160%" height="160%">
      <feGaussianBlur stdDeviation="2.5" result="blur"/>
      <feColorMatrix in="blur" type="matrix" values="1 0 0 0 0  0 0.6 0 0 0  0 0 0.2 0 0  0 0 0 0.65 0" result="colored"/>
      <feMerge>
        <feMergeNode in="colored"/>
        <feMergeNode in="SourceGraphic"/>
      </feMerge>
    </filter>
  </defs>
  <rect x="0.5" y="0.5" width="719" height="209" rx="16" fill="url(#bg)" stroke="#30363d"/>
  <rect x="24" y="20" width="3" height="46" rx="2" fill="url(#accent)"/>
  <text x="36" y="44" fill="#e6edf3" font-family="ui-sans-serif,system-ui,-apple-system,Segoe UI,Roboto,Helvetica,Arial" font-size="20" font-weight="750">Charles Pura</text>
  <text x="36" y="68" fill="#8b949e" font-family="ui-monospace,SFMono-Regular,Menlo,Monaco,Consolas,monospace" font-size="12">@charlespura</text>

  <text x="24" y="102" fill="#8b949e" font-family="ui-sans-serif,system-ui,-apple-system,Segoe UI,Roboto,Helvetica,Arial" font-size="12">Total Contributions</text>
  <text x="24" y="132" fill="#e6edf3" font-family="ui-sans-serif,system-ui,-apple-system,Segoe UI,Roboto,Helvetica,Arial" font-size="30" font-weight="850">1389</text>
  <text x="24" y="156" fill="#8b949e" font-family="ui-sans-serif,system-ui,-apple-system,Segoe UI,Roboto,Helvetica,Arial" font-size="12">2025-04-13 - 2026-04-12</text>

  <g transform="translate(330, 92)">
    <text x="0" y="0" fill="#8b949e" font-family="ui-sans-serif,system-ui,-apple-system,Segoe UI,Roboto,Helvetica,Arial" font-size="12">Public Repos</text>
    <text x="0" y="26" fill="#e6edf3" font-family="ui-sans-serif,system-ui,-apple-system,Segoe UI,Roboto,Helvetica,Arial" font-size="18" font-weight="750">59</text>

    <text x="130" y="0" fill="#8b949e" font-family="ui-sans-serif,system-ui,-apple-system,Segoe UI,Roboto,Helvetica,Arial" font-size="12">Followers</text>
    <text x="130" y="26" fill="#e6edf3" font-family="ui-sans-serif,system-ui,-apple-system,Segoe UI,Roboto,Helvetica,Arial" font-size="18" font-weight="750">22</text>

    <text x="260" y="0" fill="#8b949e" font-family="ui-sans-serif,system-ui,-apple-system,Segoe UI,Roboto,Helvetica,Arial" font-size="12">Following</text>
    <text x="260" y="26" fill="#e6edf3" font-family="ui-sans-serif,system-ui,-apple-system,Segoe UI,Roboto,Helvetica,Arial" font-size="18" font-weight="750">2</text>
  </g>

  <g transform="translate(330, 150)">
    <text x="0" y="0" fill="#8b949e" font-family="ui-sans-serif,system-ui,-apple-system,Segoe UI,Roboto,Helvetica,Arial" font-size="12">Current Streak</text>
    <g transform="translate(104, -12)" filter="url(#glow)">
      <path d="M10 2c1 4-1 6-3 8-2 2-3 4-2 7 1 3 4 5 7 5 4 0 7-3 7-7 0-4-3-6-5-9-1-2-2-3-1-4-2 1-3 2-3 0z" fill="url(#fire)"/>
      <path d="M12 10c1 2 0 3-1 4-1 1-1 2-1 3 0 2 2 3 3 3 2 0 3-2 3-4 0-2-2-3-3-6-1 1-1 1-1 0z" fill="#ffd1b3" opacity="0.55"/>
    </g>
    <text x="0" y="26" fill="#e6edf3" font-family="ui-sans-serif,system-ui,-apple-system,Segoe UI,Roboto,Helvetica,Arial" font-size="18" font-weight="800">29 days</text>
    <text x="0" y="48" fill="#8b949e" font-family="ui-sans-serif,system-ui,-apple-system,Segoe UI,Roboto,Helvetica,Arial" font-size="11">Next: 30 days</text>
    <rect x="0" y="58" width="152" height="8" rx="999" fill="#21262d" stroke="#30363d"/>
    <rect x="0" y="58" width="142" height="8" rx="999" fill="url(#accent)"/>

    <text x="180" y="0" fill="#8b949e" font-family="ui-sans-serif,system-ui,-apple-system,Segoe UI,Roboto,Helvetica,Arial" font-size="12">Longest Streak</text>
    <text x="180" y="26" fill="#e6edf3" font-family="ui-sans-serif,system-ui,-apple-system,Segoe UI,Roboto,Helvetica,Arial" font-size="18" font-weight="750">29 days</text>
  </g>

  <text x="24" y="192" fill="#8b949e" font-family="ui-sans-serif,system-ui,-apple-system,Segoe UI,Roboto,Helvetica,Arial" font-size="11">Updated 2026-04-11 • Generated by GitHub Actions</text>
</svg>
